<svg xmlns="http://www.w3.org/2000/svg" viewBox="0 0 524.53 96.01"><defs><style>.cls-1{fill:#0a1c36;fill-rule:evenodd;}</style></defs><title>Gryttr logo Sort</title><g id="Layer_2" data-name="Layer 2"><g id="Bulder_attributter" data-name="Bulder attributter"><path class="cls-1" d="M49.31,60a2.88,2.88,0,0,1-2.84-2.84v-14a2.88,2.88,0,0,1,2.84-2.84H88.19A2.88,2.88,0,0,1,91,43.14V91.39a2.88,2.88,0,0,1-2.84,2.84H75.27a2.88,2.88,0,0,1-2.84-2.84V87.95A.8.8,0,0,0,71,87.48C66.14,93,57.61,96,49.07,96,22.28,96,0,74.44,0,48S22.28,0,49.07,0A49.83,49.83,0,0,1,86.41,17.07a2.66,2.66,0,0,1-.47,3.79L71.35,30.7A3.3,3.3,0,0,1,67,30.23a25.36,25.36,0,0,0-17.9-7.35,25.13,25.13,0,0,0,0,50.26,23.85,23.85,0,0,0,19.08-9.6,4.13,4.13,0,0,0,.71-2v-.36A1.27,1.27,0,0,0,67.68,60H49.31"/><path class="cls-1" d="M145.21,24.74H127.66a2.33,2.33,0,0,0-2.33,2.33V46.59a2.33,2.33,0,0,0,2.33,2.33h17.56c9.3,0,12.79-5.7,12.79-12,0-7-3.49-12.21-12.79-12.21Zm-43-18.37A2.83,2.83,0,0,1,105,3.57h41.51c23.25,0,34,15.12,34,33.14,0,12-5,23.14-15.81,29.07a2,2,0,0,0-.7,3l16.63,23.14a1.46,1.46,0,0,1-1.16,2.33H157.19a5.62,5.62,0,0,1-4.42-2.33L138.59,71.83A4.68,4.68,0,0,0,134.86,70h-7.21a2.33,2.33,0,0,0-2.33,2.33V91.47a2.83,2.83,0,0,1-2.79,2.79H105a2.83,2.83,0,0,1-2.79-2.79V6.37Z"/><path class="cls-1" d="M200,3.57A4.74,4.74,0,0,1,204.16,6L221.6,34.5a1.32,1.32,0,0,0,2.33,0L241.37,5.9a5.24,5.24,0,0,1,4.3-2.33h21.86a1.47,1.47,0,0,1,1.28,2.33L235.67,59a8.09,8.09,0,0,0-1.28,4.3V91.47a2.83,2.83,0,0,1-2.79,2.79H214a2.83,2.83,0,0,1-2.79-2.79V63.34A8.09,8.09,0,0,0,210,59L177,5.9a1.47,1.47,0,0,1,1.28-2.33H200"/><path class="cls-1" d="M275.67,26.13a2.83,2.83,0,0,1-2.79-2.79v-17a2.83,2.83,0,0,1,2.79-2.79h74.18a2.83,2.83,0,0,1,2.79,2.79v17a2.83,2.83,0,0,1-2.79,2.79H326.71a2.33,2.33,0,0,0-2.33,2.33v63a2.83,2.83,0,0,1-2.79,2.79H303.92a2.83,2.83,0,0,1-2.79-2.79v-63a2.33,2.33,0,0,0-2.33-2.33H275.67"/><path class="cls-1" d="M360.55,26.13a2.83,2.83,0,0,1-2.79-2.79v-17a2.83,2.83,0,0,1,2.79-2.79h74.18a2.83,2.83,0,0,1,2.79,2.79v17a2.83,2.83,0,0,1-2.79,2.79H411.59a2.33,2.33,0,0,0-2.33,2.33v63a2.83,2.83,0,0,1-2.79,2.79H388.8A2.83,2.83,0,0,1,386,91.47v-63a2.33,2.33,0,0,0-2.33-2.33H360.55"/><path class="cls-1" d="M488.91,24.74H471.35A2.33,2.33,0,0,0,469,27.06V46.59a2.33,2.33,0,0,0,2.33,2.33h17.56c9.3,0,12.79-5.7,12.79-12,0-7-3.49-12.21-12.79-12.21ZM448.68,3.57h41.51c23.25,0,34,15.12,34,33.14,0,12-5,23.14-15.81,29.07a2,2,0,0,0-.7,3l16.63,23.14a1.46,1.46,0,0,1-1.16,2.33H500.88a5.62,5.62,0,0,1-4.42-2.33L482.28,71.83A4.69,4.69,0,0,0,478.56,70h-7.21A2.33,2.33,0,0,0,469,72.29V91.47a2.83,2.83,0,0,1-2.79,2.79H448.68a2.83,2.83,0,0,1-2.79-2.79V6.37a2.83,2.83,0,0,1,2.79-2.79Z"/></g></g></svg>