<svg width="24" height="24" xmlns="http://www.w3.org/2000/svg">
 <defs>
  <filter id="svg_2_blur">
   <feGaussianBlur stdDeviation="1" in="SourceGraphic"/>
  </filter>
 </defs>
 <g>
  <title>background</title>
  <rect fill="none" id="canvas_background" height="402" width="582" y="-1" x="-1"/>
 </g>
 <g>
  <title>Layer 1</title>
  <path stroke="null" opacity="0.35" filter="url(#svg_2_blur)" transform="rotate(39.521915435791016 11.7730827331543,11.960279464721678) " id="svg_2" fill="#000000" d="m11.772985,2.178086c-3.781502,0 -6.847339,3.03248 -6.847339,6.847535c0,1.271685 0.392951,2.54337 1.069976,3.619411c0.032673,0.097822 0.057715,0.097822 0.091757,0.195644l4.248602,7.825754c0.199557,0.586932 0.764967,1.076041 1.406679,1.076041s1.17582,-0.48911 1.375376,-1.076041l4.738494,-8.510508c0.488131,-0.978219 0.763989,-2.05426 0.763989,-3.130302c0,-3.815055 -3.065739,-6.847535 -6.847535,-6.847535zm-1.42146,8.650892c1.890898,0 -3.13443,-3.403176 -3.13443,-1.544559c0,1.858617 1.613739,0.111546 -0.277159,0.111546s1.378957,1.977382 1.378957,0.020944c0,-1.858617 0.141734,1.412069 2.032632,1.412069z"/>
 </g>
</svg>