<svg width="23.999999999999996" height="23.999999999999996" xmlns="http://www.w3.org/2000/svg">

 <g>
  <title>background</title>
  <rect fill="none" id="canvas_background" height="402" width="582" y="-1" x="-1"/>
 </g>
 <g>
  <title>Layer 1</title>
  <path id="svg_2" fill="#003c8f" d="m12.031,1.999976c-3.8657,0 -6.9998,3.1 -6.9998,7c0,1.3 0.4017,2.6 1.0938,3.7c0.0334,0.1 0.059,0.1 0.0938,0.2l4.3432,8c0.204,0.6 0.782,1.1 1.438,1.1s1.202,-0.5 1.406,-1.1l4.844,-8.7c0.499,-1 0.781,-2.1 0.781,-3.2c0,-3.9 -3.134,-7 -7,-7zm-0.031,3.9c1.933,0 3.5,1.6 3.5,3.5c0,2 -1.567,3.5 -3.5,3.5s-3.5,-1.5 -3.5,-3.5c0,-1.9 1.567,-3.5 3.5,-3.5z"/>
  <path id="svg_3" fill="#1565c0" d="m12.031,1.0312c-3.8657,0 -6.9998,3.134 -6.9998,7c0,1.383 0.4017,2.6648 1.0938,3.7498c0.0334,0.053 0.059,0.105 0.0938,0.157l4.3432,8.062c0.204,0.586 0.782,1.031 1.438,1.031s1.202,-0.445 1.406,-1.031l4.844,-8.75c0.499,-0.963 0.781,-2.06 0.781,-3.2188c0,-3.866 -3.134,-7 -7,-7zm-0.031,3.9688c1.933,0 3.5,1.567 3.5,3.5s-1.567,3.5 -3.5,3.5s-3.5,-1.567 -3.5,-3.5s1.567,-3.5 3.5,-3.5z"/>
  <ellipse stroke="null" ry="3.158527" rx="3.47093" id="svg_4" cy="8.83953" cx="12.033805" stroke-opacity="null" stroke-width="null" fill="#ffffff"/>
 </g>
</svg>